<svg xmlns="http://www.w3.org/2000/svg" width="25" height="25" viewBox="0 0 25 25"><path style="text-indent:0;text-align:start;line-height:normal;text-transform:none;block-progression:tb;marker:none;-inkscape-font-specification:Sans" d="M 12.5 0 C 5.602137 0 0 5.6021 0 12.5 C 0 19.3978 5.6021323 25 12.5 25 C 19.397867 25 25 19.3978 25 12.5 C 25 5.6021 19.397862 0 12.5 0 z M 12.5 0.96875 C 18.878212 0.96875 24.03125 6.1218 24.03125 12.5 C 24.03125 18.8782 18.878208 24.0625 12.5 24.0625 C 6.1217918 24.0625 0.96875 18.8782 0.96875 12.5 C 0.96875 6.1218 6.1217871 0.96875 12.5 0.96875 z M 10.03125 7 C 7.6474718 7 6 8.9755 6 11.3125 C 6 12.7442 6.9511724 14.1404 8.1875 15.4375 C 9.4238276 16.7346 10.980956 17.93565 12.4375 18.90625 L 12.71875 19.09375 L 13 18.90625 C 14.458948 17.93405 16.019587 16.70835 17.25 15.40625 C 18.480413 14.10425 19.414321 12.7195 19.4375 11.3125 C 19.47593 8.9795 17.883826 7 15.5 7 C 14.541196 7 13.62309 7.5023 12.71875 8.3125 C 11.838002 7.5127 10.986961 7 10.03125 7 z M 10.03125 8 C 10.756783 8 11.461355 8.36805 12.375 9.28125 L 12.71875 9.625 L 13.0625 9.28125 C 13.965547 8.37865 14.774467 8 15.5 8 C 17.344116 8 18.468673 9.4199 18.4375 11.3125 C 18.42194 12.2571 17.683814 13.49905 16.53125 14.71875 C 15.456356 15.85615 14.047222 16.93585 12.71875 17.84375 C 11.38748 16.93595 9.9843579 15.8811 8.90625 14.75 C 7.7499186 13.5369 7 12.2786 7 11.3125 C 7 9.4233 8.1870884 8 10.03125 8 z " color="#000" font-family="Sans" font-weight="400" overflow="visible"/></svg>